<?xml version="1.0" standalone="no"?><!DOCTYPE svg PUBLIC "-//W3C//DTD SVG 1.1//EN" "http://www.w3.org/Graphics/SVG/1.1/DTD/svg11.dtd"><svg t="1516765022072" fill="#ec5828" class="icon" style="" viewBox="0 0 1024 1024" version="1.1" xmlns="http://www.w3.org/2000/svg" p-id="3248" xmlns:xlink="http://www.w3.org/1999/xlink" width="200" height="200"><defs><style type="text/css"></style></defs><path d="M1024 512C1024 229.230208 794.769792 0 512 0 229.230208 0 0 229.230208 0 512 0 794.769792 229.230208 1024 512 1024 625.686419 1024 733.786972 986.820171 822.292028 919.295213 832.066406 911.83785 833.944717 897.868762 826.487354 888.094383 819.029988 878.320004 805.0609 876.441692 795.286522 883.899057 714.473916 945.555057 615.842022 979.478261 512 979.478261 253.818886 979.478261 44.521739 770.181114 44.521739 512 44.521739 253.818886 253.818886 44.521739 512 44.521739 770.181114 44.521739 979.478261 253.818886 979.478261 512 979.478261 599.047373 955.670714 682.541024 911.318368 755.201306 904.912864 765.695127 908.227102 779.394737 918.720924 785.800239 929.214746 792.205743 942.914355 788.891505 949.319857 778.397683 997.906701 698.800235 1024 607.290394 1024 512Z" p-id="3249"></path><path d="M551.801933 843.859904C551.801933 843.859904 551.910146 860.977865 529.538995 860.977865 507.167844 860.977865 503.178743 843.859904 503.178743 843.859904L503.178743 766.939614C414.434338 757.374349 357.575004 715.792638 332.599034 642.193237 332.599034 642.193237 321.314219 616.817284 346.988612 607.420567 372.663008 598.023853 386.403381 621.070048 386.403381 621.070048 407.128124 677.133131 446.052855 707.555531 503.178743 712.338163L503.178743 527.410628C441.270221 512.531326 401.083426 493.135386 382.61715 469.222223 364.150874 445.309058 354.917875 418.739277 354.917875 389.512077 354.917875 312.458551 404.33767 265.695735 503.178743 249.222223L503.178743 183.461353C503.178743 183.461353 508.270528 165.816358 526.337227 165.816358 544.403925 165.816358 551.801933 183.461353 551.801933 183.461353L551.801933 249.222223C630.183966 256.130468 681.596497 291.202581 706.041062 354.439614 706.041062 354.439614 706.041062 374.760719 686.661534 380.219202 667.282005 385.677687 651.838163 371.975846 651.838163 371.975846 637.224565 328.666449 603.879488 305.285041 551.801933 301.830918L551.801933 472.410628C661.536781 492.072561 716.403381 541.492358 716.403381 620.671497 716.403381 654.681329 703.915584 686.232947 678.939614 715.327294 653.963644 744.421643 611.584841 761.625577 551.801933 766.939614L551.801933 843.859904ZM503.178743 301.830918C475.811458 303.956533 453.957811 312.326014 437.61715 326.939614 421.276489 341.553214 413.106281 360.019213 413.106281 382.338163 413.106281 426.178963 443.130135 453.811537 503.178743 465.236715L503.178743 301.830918ZM551.801933 712.338163C584.217553 711.009655 609.525271 702.108779 627.725845 685.635266 645.926419 669.161754 655.026571 649.367266 655.026571 626.251209 655.026571 577.096373 620.618701 547.736764 551.801933 538.171497L551.801933 712.338163Z" p-id="3250"></path></svg>